<svg width="28" height="20" viewBox="0 0 28 20" fill="none" xmlns="http://www.w3.org/2000/svg">
<g id="Vector">
<path fill-rule="evenodd" clip-rule="evenodd" d="M0 9.99975C0 9.02522 0.790177 8.23504 1.76471 8.23504L24.118 8.23504C25.0926 8.23504 25.8827 9.02522 25.8827 9.99975C25.8827 10.9743 25.0926 11.7645 24.118 11.7645L1.76471 11.7645C0.790177 11.7645 0 10.9743 0 9.99975Z" fill="#4F606F"/>
<path fill-rule="evenodd" clip-rule="evenodd" d="M15.8108 0.516707C16.5001 -0.172236 17.6173 -0.172236 18.3066 0.516707L26.5416 8.75215C27.231 9.44149 27.231 10.5586 26.5416 11.248L18.3066 19.483C17.6173 20.1723 16.5001 20.1723 15.8108 19.483C15.1218 18.7941 15.1218 17.6769 15.8108 16.9876L22.7983 10.0001L15.8108 3.01251C15.1218 2.32357 15.1218 1.20605 15.8108 0.516707Z" fill="#4F606F"/>
</g>
</svg>
