<svg width="20" height="20" viewBox="0 0 20 20" fill="none" xmlns="http://www.w3.org/2000/svg">
<g id="Vector">
<path d="M14.2 0H5.8C4.26174 0 2.78649 0.61107 1.69878 1.69878C0.61107 2.78649 0 4.26174 0 5.8V14.2C0 15.7383 0.61107 17.2135 1.69878 18.3012C2.78649 19.3889 4.26174 20 5.8 20H14.2C15.7383 20 17.2135 19.3889 18.3012 18.3012C19.3889 17.2135 20 15.7383 20 14.2V5.8C20 4.26174 19.3889 2.78649 18.3012 1.69878C17.2135 0.61107 15.7383 0 14.2 0ZM10 15C9.01109 15 8.04439 14.7068 7.22215 14.1573C6.3999 13.6079 5.75904 12.827 5.3806 11.9134C5.00216 10.9998 4.90315 9.99445 5.09607 9.02455C5.289 8.05464 5.7652 7.16373 6.46447 6.46447C7.16373 5.7652 8.05464 5.289 9.02455 5.09607C9.99445 4.90315 10.9998 5.00216 11.9134 5.3806C12.827 5.75904 13.6079 6.3999 14.1573 7.22215C14.7068 8.04439 15 9.01109 15 10C15 11.3261 14.4732 12.5979 13.5355 13.5355C12.5979 14.4732 11.3261 15 10 15ZM15.82 5.43C15.5728 5.43 15.3311 5.35669 15.1255 5.21934C14.92 5.08198 14.7598 4.88676 14.6651 4.65835C14.5705 4.42995 14.5458 4.17861 14.594 3.93614C14.6423 3.69366 14.7613 3.47093 14.9361 3.29612C15.1109 3.1213 15.3337 3.00225 15.5761 2.95402C15.8186 2.90579 16.0699 2.93054 16.2984 3.02515C16.5268 3.11976 16.722 3.27998 16.8593 3.48554C16.9967 3.6911 17.07 3.93277 17.07 4.18C17.07 4.51152 16.9383 4.82946 16.7039 5.06388C16.4695 5.2983 16.1515 5.43 15.82 5.43Z" fill="#E82E3C"/>
<path d="M10 13C11.6569 13 13 11.6569 13 10C13 8.34315 11.6569 7 10 7C8.34315 7 7 8.34315 7 10C7 11.6569 8.34315 13 10 13Z" fill="#E82E3C"/>
</g>
</svg>
