<svg width="20" height="20" viewBox="0 0 20 20" fill="none" xmlns="http://www.w3.org/2000/svg">
<path id="Subtract" fill-rule="evenodd" clip-rule="evenodd" d="M10 20C15.5228 20 20 15.5229 20 10C20 4.47705 15.5228 0 10 0C4.47717 0 0 4.47705 0 10C0 15.5229 4.47717 20 10 20ZM13.2 14.6997C13.7 14.5996 14.7 14.0996 14.9 13.5C15.1 12.8999 15.1 12.3999 15.3 12.0996C15.2 12 15 11.8999 14.8 11.7998C14.5 11.6997 13.3 11.0996 13.1 11C12.8 10.8999 12.7 10.8999 12.5 11.0996C12.4048 11.2427 12.2416 11.4307 12.086 11.6099C11.9147 11.8076 11.7524 11.9951 11.7 12.0996C11.6 12.2998 11.4 12.2998 11.2 12.1997C10.9 12.0996 10.1 11.7998 9.20001 11C8.63519 10.5762 8.26978 10.0034 8.03333 9.63232C7.93488 9.47803 7.85876 9.35889 7.79999 9.2998C7.70001 9.09961 7.79999 8.8999 7.90002 8.7998L8.29999 8.3999C8.36176 8.33789 8.38538 8.27588 8.41797 8.19092C8.43817 8.13818 8.46179 8.07617 8.5 8C8.59998 7.8999 8.59998 7.69971 8.5 7.59961C8.40002 7.5 7.90002 6.2998 7.70001 5.7998C7.52856 5.37109 7.35712 5.38379 7.18567 5.396C7.1571 5.39795 7.12854 5.3999 7.09998 5.3999H6.59998C6.40002 5.3999 6.09998 5.5 5.90002 5.69971C5.86469 5.75293 5.81372 5.81543 5.75372 5.88867C5.47443 6.23047 5 6.81152 5 7.7998C5 8.88672 5.62958 9.83398 5.8941 10.2319C5.94586 10.3101 5.98364 10.3672 6 10.3999C6.09998 10.5 7.70001 13 10.2 14.0996C10.8 14.2998 11.2 14.5 11.6 14.5996C12.2 14.7998 12.8 14.7998 13.2 14.6997Z" fill="#E82E3C"/>
</svg>
