<svg width="56" height="56" viewBox="0 0 56 56" fill="none" xmlns="http://www.w3.org/2000/svg">
<g id="Group 59">
<circle id="Ellipse 6" cx="28" cy="28" r="28" fill="url(#paint0_linear_347_11)"/>
<path id="Vector" d="M36.7243 19.335C34.6358 17.15 31.7352 16 28.6025 16C22.2211 16 17.116 21.175 17.116 27.385C17.116 29.455 17.6962 31.41 18.6244 33.135L17 39L23.0333 37.39C24.7737 38.31 26.6301 38.77 28.4865 38.77C34.8679 38.77 39.973 33.595 39.973 27.385C40.205 24.395 38.9287 21.52 36.7243 19.335ZM34.2877 31.525C34.0557 32.215 32.8954 32.79 32.3153 32.905C31.8512 33.02 31.1551 33.02 30.4589 32.79C29.9948 32.675 29.5307 32.445 28.8346 32.215C25.9339 30.95 24.0775 28.075 23.9615 27.96C23.8455 27.73 22.8013 26.465 22.8013 24.97C22.8013 23.59 23.6134 22.9 23.8455 22.555C24.0775 22.325 24.4256 22.21 24.6577 22.21C24.8897 22.21 25.0057 22.21 25.2378 22.21C25.4698 22.21 25.7019 22.095 25.9339 22.67C26.166 23.245 26.7461 24.625 26.8621 24.74C26.9782 24.855 26.9782 25.085 26.8621 25.2C26.7461 25.43 26.7461 25.545 26.6301 25.66C26.5141 25.775 26.282 26.005 26.166 26.12C26.05 26.235 25.9339 26.465 26.05 26.695C26.282 26.925 26.7461 27.96 27.6743 28.65C28.7185 29.57 29.6467 29.915 29.9948 30.03C30.2269 30.145 30.4589 30.145 30.5749 29.915C30.691 29.685 31.2711 29.11 31.5031 28.765C31.7352 28.535 31.8512 28.535 32.1993 28.65C32.4313 28.765 33.8236 29.455 34.1717 29.57C34.4038 29.685 34.6358 29.8 34.7518 29.915C34.5198 30.26 34.5198 30.835 34.2877 31.525Z" fill="white"/>
</g>
<defs>
<linearGradient id="paint0_linear_347_11" x1="56" y1="-2.34693e-05" x2="-5.351e-05" y2="55.9999" gradientUnits="userSpaceOnUse">
<stop stop-color="#E82E3C" stop-opacity="0.75"/>
<stop offset="1" stop-color="#E82E3C"/>
</linearGradient>
</defs>
</svg>
