<svg width="56" height="56" viewBox="0 0 56 56" fill="none" xmlns="http://www.w3.org/2000/svg">
<g id="Group 60">
<circle id="Ellipse 5" cx="28" cy="28" r="27.5" fill="white" stroke="#A4B0BB"/>
<g id="Vector">
<path fill-rule="evenodd" clip-rule="evenodd" d="M27.9998 40.3528C27.1227 40.3528 26.4115 39.6416 26.4115 38.7645L26.4115 18.6465C26.4115 17.7695 27.1227 17.0583 27.9998 17.0583C28.8769 17.0583 29.588 17.7695 29.588 18.6465L29.588 38.7645C29.588 39.6416 28.8769 40.3528 27.9998 40.3528Z" fill="#4F606F"/>
<path fill-rule="evenodd" clip-rule="evenodd" d="M19.465 26.1231C18.845 25.5027 18.845 24.4973 19.465 23.8768L26.8769 16.4653C27.4973 15.8449 28.5027 15.8449 29.1232 16.4653L36.5347 23.8768C37.1551 24.4972 37.1551 25.5027 36.5347 26.1231C35.9146 26.7431 34.9093 26.7431 34.2888 26.1231L28 19.8343L21.7113 26.1231C21.0912 26.7431 20.0854 26.7431 19.465 26.1231Z" fill="#4F606F"/>
</g>
</g>
</svg>
