<svg width="56" height="56" viewBox="0 0 56 56" fill="none" xmlns="http://www.w3.org/2000/svg">
<g id="Group 68">
<circle id="Ellipse 6" cx="28" cy="28" r="28" fill="url(#paint0_linear_749_2300)"/>
<path id="Vector" d="M37.0103 34.5696C36.6263 35.7217 34.7061 36.6818 33.7459 36.8739C32.9778 37.0659 31.8257 37.0659 30.6736 36.6818C29.9055 36.4898 29.1374 36.1058 27.9852 35.7217C23.1846 33.6095 20.1123 28.8089 19.9202 28.6169C19.7282 28.2328 18 26.1205 18 23.6242C18 21.32 19.3442 20.1678 19.7282 19.5917C20.1123 19.2077 20.6883 19.0157 21.0724 19.0157H22.0325C22.4165 19.0157 22.8006 18.8237 23.1846 19.7838C23.5687 20.7439 24.5288 23.0482 24.7208 23.2402C24.9128 23.4322 24.9128 23.8163 24.7208 24.0083C24.5288 24.3923 24.5288 24.5844 24.3368 24.7764L23.5687 25.5445C23.3767 25.7365 23.1846 26.1205 23.3767 26.5046C23.7607 26.8886 24.5288 28.6169 26.065 29.769C27.7932 31.3052 29.3294 31.8813 29.9055 32.0733C30.2895 32.2653 30.6736 32.2653 30.8656 31.8813C31.0576 31.4972 32.0177 30.5371 32.4018 29.961C32.7858 29.577 32.9778 29.577 33.5539 29.769C33.938 29.961 36.2422 31.1132 36.8183 31.3052C37.2024 31.4972 37.5864 31.6892 37.7784 31.8813C37.3944 32.4573 37.3944 33.4174 37.0103 34.5696Z" fill="white"/>
</g>
<defs>
<linearGradient id="paint0_linear_749_2300" x1="56" y1="-2.34693e-05" x2="-5.351e-05" y2="55.9999" gradientUnits="userSpaceOnUse">
<stop stop-color="#E82E3C" stop-opacity="0.75"/>
<stop offset="1" stop-color="#E82E3C"/>
</linearGradient>
</defs>
</svg>
