<svg width="16" height="16" viewBox="0 0 16 16" fill="none" xmlns="http://www.w3.org/2000/svg">
<g id="Vector">
<path fill-rule="evenodd" clip-rule="evenodd" d="M0.410032 15.5899C-0.136677 15.0431 -0.136678 14.1566 0.410031 13.6099L12.9501 1.06976C13.4968 0.523047 14.3834 0.52305 14.9301 1.06976C15.4768 1.61647 15.4768 2.50304 14.9301 3.04974L2.39002 15.5899C1.84331 16.1366 0.95674 16.1366 0.410032 15.5899Z" fill="#E82E3C"/>
<path fill-rule="evenodd" clip-rule="evenodd" d="M3.95987 1.40013C3.96009 0.626927 4.58679 0.000226247 5.36 0L14.5999 0.000224671C15.3733 0.000224678 16 0.626924 16 1.40036L16 10.64C16 11.4134 15.3733 12.0401 14.5999 12.0401C13.8269 12.0401 13.2002 11.4134 13.2 10.6402L13.2 2.80027L5.36 2.80027C4.58701 2.80027 3.96009 2.17335 3.95987 1.40013Z" fill="#E82E3C"/>
</g>
</svg>
