<svg width="40" height="40" viewBox="0 0 40 40" fill="none" xmlns="http://www.w3.org/2000/svg">
<g id="Vector">
<path d="M27.2067 17.9408L28.8069 13.2032C29.0125 12.5943 28.8604 11.9369 28.4077 11.4841C27.9653 11.04 27.2983 10.8787 26.6952 11.0816L21.9778 12.688L17.9809 9.69729C17.4867 9.32605 16.8006 9.26013 16.2287 9.54636C15.6584 9.83606 15.3094 10.4172 15.318 11.0591L15.3819 16.0621L11.3125 18.9505C10.7906 19.3217 10.5279 19.9445 10.6282 20.5794C10.7284 21.2109 11.169 21.7226 11.779 21.9152L14.6734 22.819L0.505444 37.0422C-0.168481 37.7188 -0.168481 38.8169 0.505444 39.4952C0.842407 39.8317 1.28478 40 1.72715 40C2.16952 40 2.6119 39.83 2.94886 39.4952L17.1169 25.2719L18.0172 28.1794C18.2072 28.79 18.7187 29.2289 19.346 29.333C19.3909 29.3399 19.562 29.3538 19.6087 29.3538C20.1495 29.3538 20.6541 29.0919 20.9686 28.6478L23.8475 24.5641L28.9244 24.6249C29.5603 24.5607 30.0735 24.2293 30.3362 23.7124C30.6265 23.1399 30.5695 22.4651 30.1876 21.9533L27.2067 17.9408Z" fill="url(#paint0_linear_569_97)"/>
<path d="M14.7391 4.25883L14.4039 6.22257C14.3814 6.35441 14.4367 6.48799 14.5438 6.56605C14.6061 6.60942 14.6769 6.63371 14.7495 6.63371C14.8048 6.63371 14.8601 6.61983 14.9136 6.59381L16.6693 5.66571L18.425 6.59207C18.4768 6.61983 18.5338 6.63197 18.5909 6.63197C18.6617 6.63197 18.7326 6.60769 18.7965 6.56432C18.9036 6.48625 18.9572 6.35268 18.9347 6.22083L18.6012 4.25709L20.0216 2.86582C20.1167 2.77561 20.1495 2.63509 20.1098 2.50846C20.0683 2.38182 19.9577 2.28814 19.8264 2.26733L17.8616 1.98283L16.9838 0.196027C16.925 0.0763291 16.8041 0 16.6693 0C16.5345 0 16.4153 0.0763291 16.3548 0.196027L15.477 1.98283L13.5122 2.26733C13.3809 2.28814 13.2703 2.38008 13.2288 2.50846C13.1873 2.63683 13.2219 2.77387 13.3187 2.86755L14.7391 4.25883Z" fill="url(#paint1_linear_569_97)"/>
<path d="M35.0053 9.23411C35.0761 9.23411 35.147 9.20982 35.2109 9.16645C35.318 9.08838 35.3716 8.95481 35.3491 8.82297L35.0156 6.85922L36.4361 5.46795C36.5311 5.37774 36.5639 5.23723 36.5242 5.11059C36.4827 4.98395 36.3721 4.89028 36.2408 4.86946L34.276 4.58496L33.3982 2.79816C33.3377 2.67846 33.2185 2.60213 33.0854 2.60213C32.9524 2.60213 32.8332 2.67846 32.7709 2.79816L31.8931 4.58496L29.9266 4.86946C29.797 4.89028 29.6847 4.98222 29.6432 5.11059C29.6018 5.23896 29.6363 5.37601 29.7331 5.46969L31.1535 6.86096L30.82 8.8247C30.7958 8.95654 30.8528 9.09012 30.9583 9.16818C31.0222 9.21155 31.093 9.23584 31.1639 9.23584C31.2192 9.23584 31.2745 9.22196 31.3298 9.19594L33.0854 8.26785L34.8411 9.1942C34.8929 9.22196 34.95 9.23411 35.0053 9.23411Z" fill="url(#paint2_linear_569_97)"/>
<path d="M4.37102 15.5347L4.03578 17.4985C4.01332 17.6303 4.06861 17.7639 4.17575 17.842C4.23796 17.8853 4.30881 17.9096 4.38138 17.9096C4.43668 17.9096 4.49198 17.8957 4.54554 17.8697L6.30121 16.9416L8.05687 17.868C8.10871 17.8957 8.16574 17.9079 8.22103 17.9079C8.29361 17.9079 8.36446 17.8836 8.42667 17.8402C8.5338 17.7622 8.58737 17.6286 8.56664 17.4967L8.2314 15.533L9.65183 14.1417C9.74687 14.0515 9.78143 13.911 9.73996 13.7844C9.69848 13.6577 9.58962 13.5641 9.45656 13.5432L7.49181 13.2587L6.61398 11.4719C6.55522 11.3522 6.43427 11.2759 6.30121 11.2759C6.16815 11.2759 6.04719 11.3522 5.98671 11.4719L5.10888 13.2587L3.14412 13.5432C3.01279 13.5641 2.9022 13.656 2.86073 13.7844C2.81926 13.9127 2.85382 14.0498 2.95059 14.1435L4.37102 15.5347Z" fill="url(#paint3_linear_569_97)"/>
<path d="M39.982 22.4564C39.9405 22.3298 39.8282 22.2378 39.6986 22.2188L37.7321 21.9343L36.8542 20.1475C36.7972 20.0278 36.6745 19.9514 36.5397 19.9514C36.405 19.9514 36.2875 20.0278 36.2252 20.1475L35.3474 21.9343L33.3809 22.2188C33.2513 22.2396 33.139 22.3315 33.0975 22.4599C33.0561 22.5883 33.0906 22.7253 33.1874 22.819L34.6078 24.2103L34.2743 26.174C34.2501 26.3058 34.3071 26.4394 34.4126 26.5175C34.4765 26.5591 34.5473 26.5851 34.6182 26.5851C34.6735 26.5851 34.7288 26.5713 34.7841 26.547L36.5415 25.6154L38.2971 26.5435C38.349 26.5713 38.406 26.5817 38.463 26.5817C38.5339 26.5817 38.6047 26.5556 38.6687 26.514C38.7758 26.4359 38.8294 26.3024 38.8069 26.1705L38.4734 24.2068L39.8938 22.8155C39.9889 22.7218 40.0252 22.5831 39.982 22.4564Z" fill="url(#paint4_linear_569_97)"/>
<path d="M28.4647 32.6256L26.5 32.3411L25.6221 30.556C25.5617 30.4363 25.4424 30.36 25.3059 30.36C25.1694 30.36 25.0519 30.4363 24.9897 30.556L24.1119 32.3411L22.1471 32.6256C22.0158 32.6481 21.9052 32.7383 21.8637 32.8684C21.824 32.9951 21.8568 33.1338 21.9553 33.2275L23.374 34.6188L23.0388 36.5825C23.0163 36.7144 23.0733 36.848 23.1805 36.926C23.2409 36.9694 23.3118 36.9937 23.3861 36.9937C23.4397 36.9937 23.495 36.9798 23.5485 36.9538L25.3059 36.0291L27.0633 36.9538C27.1134 36.9833 27.1722 36.9937 27.2257 36.9937C27.3 36.9937 27.3709 36.9694 27.4314 36.926C27.5402 36.848 27.5938 36.7144 27.5731 36.5825L27.2378 34.6188L28.6565 33.2275C28.755 33.1338 28.7879 32.9951 28.7481 32.8684C28.7067 32.74 28.5961 32.6464 28.4647 32.6256Z" fill="url(#paint5_linear_569_97)"/>
</g>
<defs>
<linearGradient id="paint0_linear_569_97" x1="20" y1="0" x2="20" y2="40" gradientUnits="userSpaceOnUse">
<stop stop-color="#E82E3C"/>
<stop offset="1" stop-color="#F0858E"/>
</linearGradient>
<linearGradient id="paint1_linear_569_97" x1="20" y1="0" x2="20" y2="40" gradientUnits="userSpaceOnUse">
<stop stop-color="#E82E3C"/>
<stop offset="1" stop-color="#F0858E"/>
</linearGradient>
<linearGradient id="paint2_linear_569_97" x1="20" y1="0" x2="20" y2="40" gradientUnits="userSpaceOnUse">
<stop stop-color="#E82E3C"/>
<stop offset="1" stop-color="#F0858E"/>
</linearGradient>
<linearGradient id="paint3_linear_569_97" x1="20" y1="0" x2="20" y2="40" gradientUnits="userSpaceOnUse">
<stop stop-color="#E82E3C"/>
<stop offset="1" stop-color="#F0858E"/>
</linearGradient>
<linearGradient id="paint4_linear_569_97" x1="20" y1="0" x2="20" y2="40" gradientUnits="userSpaceOnUse">
<stop stop-color="#E82E3C"/>
<stop offset="1" stop-color="#F0858E"/>
</linearGradient>
<linearGradient id="paint5_linear_569_97" x1="20" y1="0" x2="20" y2="40" gradientUnits="userSpaceOnUse">
<stop stop-color="#E82E3C"/>
<stop offset="1" stop-color="#F0858E"/>
</linearGradient>
</defs>
</svg>
