<svg width="36" height="36" viewBox="0 0 36 36" fill="none" xmlns="http://www.w3.org/2000/svg">
<path id="Vector" d="M30.3211 10.4906L28.3142 11.0283L27.0149 6.17915C26.5014 4.2629 24.5315 3.12556 22.6153 3.63901L16.5404 5.26678L16.0024 3.25902C15.3741 0.914241 12.9636 -0.477434 10.6189 0.150846L10.4419 0.198264C8.09713 0.826545 6.70545 3.237 7.33373 5.58177L7.87171 7.58954L2.66341 8.9851C0.747165 9.49855 -0.390179 11.4685 0.123277 13.3847L1.42261 18.2339L3.4295 17.6962C5.77428 17.0679 8.18473 18.4596 8.81301 20.8043L8.86043 20.9813C9.48871 23.3261 8.09704 25.7365 5.75226 26.3648L3.74536 26.9025L5.46936 33.3366C5.98282 35.2528 7.95275 36.3902 9.869 35.8767L15.0773 34.4812L14.6072 32.7267C13.9789 30.3819 15.3706 27.9715 17.7154 27.3432L17.8923 27.2958C20.2371 26.6675 22.6476 28.0592 23.2758 30.4039L23.7459 32.1584L29.8208 30.5306C31.7371 30.0172 32.8744 28.0472 32.361 26.131L30.637 19.697L32.6439 19.1592C34.9887 18.5309 36.3803 16.1205 35.7521 13.7757L35.7046 13.5987C35.0762 11.2535 32.6659 9.86229 30.3211 10.4906Z" fill="url(#paint0_linear_569_118)"/>
<defs>
<linearGradient id="paint0_linear_569_118" x1="17.9515" y1="0" x2="17.9515" y2="36" gradientUnits="userSpaceOnUse">
<stop stop-color="#E82E3C"/>
<stop offset="1" stop-color="#F0858E"/>
</linearGradient>
</defs>
</svg>
