<svg width="35" height="36" viewBox="0 0 35 36" fill="none" xmlns="http://www.w3.org/2000/svg">
<g id="Vector">
<path d="M34.9251 5.44342C34.8306 5.20722 34.606 5.05312 34.3582 5.05312H30.0634V0.632131C30.0634 0.376978 29.9137 0.145823 29.6842 0.0485616C29.4548 -0.0499632 29.1922 0.00435177 29.0155 0.184981L24.1072 5.23753C23.993 5.35627 23.928 5.51669 23.928 5.68468V8.66443L17.3104 17.2929C17.1177 17.5443 17.1374 17.9043 17.3582 18.1316C17.4773 18.2542 17.6343 18.3161 17.7926 18.3161C17.9264 18.3161 18.0613 18.2706 18.173 18.1809L26.5552 11.3688H29.4499C29.6131 11.3688 29.7689 11.3019 29.8842 11.1844L34.7925 6.13184C34.9668 5.94994 35.0196 5.67963 34.9251 5.44342Z" fill="url(#paint0_linear_569_53)"/>
<path d="M29.8806 12.9743C30.5395 14.6264 30.9236 16.4226 30.9236 18.3161C30.9236 26.1172 24.7587 32.4632 17.1803 32.4632C9.60188 32.4632 3.43582 26.1172 3.43582 18.3161C3.43582 10.5149 9.60065 4.16892 17.1791 4.16892C19.0185 4.16892 20.7646 4.56302 22.3684 5.24132L24.9661 2.56726C22.6261 1.33949 19.9854 0.632131 17.1791 0.632131C7.69132 0.632131 0 8.54948 0 18.3161C0 28.0827 7.69132 36 17.1791 36C26.6668 36 34.3582 28.0827 34.3582 18.3161C34.3582 15.4273 33.671 12.7077 32.4783 10.2989L29.8806 12.9743Z" fill="url(#paint1_linear_569_53)"/>
<path d="M17.1791 22.1055C19.2122 22.1055 20.8603 20.4089 20.8603 18.3161C20.8603 16.2232 19.2122 14.5267 17.1791 14.5267C15.146 14.5267 13.4978 16.2232 13.4978 18.3161C13.4978 20.4089 15.146 22.1055 17.1791 22.1055Z" fill="url(#paint2_linear_569_53)"/>
<path d="M23.5697 15.4033C23.955 16.295 24.1734 17.279 24.1734 18.3161C24.1734 22.2861 21.0346 25.516 17.1791 25.516C13.3236 25.516 10.1847 22.2861 10.1847 18.3161C10.1847 14.346 13.3236 11.1162 17.1791 11.1162C18.1853 11.1162 19.1424 11.341 20.0087 11.7376L22.1856 8.89811C20.6996 8.05812 18.9939 7.57939 17.1791 7.57939C11.4216 7.57939 6.74892 12.3869 6.74892 18.3161C6.74892 24.2452 11.4216 29.0527 17.1791 29.0527C22.9365 29.0527 27.6092 24.2452 27.6092 18.3161C27.6092 16.4479 27.1442 14.6921 26.3282 13.1612L23.5697 15.4033Z" fill="url(#paint3_linear_569_53)"/>
</g>
<defs>
<linearGradient id="paint0_linear_569_53" x1="17.4857" y1="0" x2="17.4857" y2="36" gradientUnits="userSpaceOnUse">
<stop stop-color="#E82E3C"/>
<stop offset="1" stop-color="#F0858E"/>
</linearGradient>
<linearGradient id="paint1_linear_569_53" x1="17.4857" y1="0" x2="17.4857" y2="36" gradientUnits="userSpaceOnUse">
<stop stop-color="#E82E3C"/>
<stop offset="1" stop-color="#F0858E"/>
</linearGradient>
<linearGradient id="paint2_linear_569_53" x1="17.4857" y1="0" x2="17.4857" y2="36" gradientUnits="userSpaceOnUse">
<stop stop-color="#E82E3C"/>
<stop offset="1" stop-color="#F0858E"/>
</linearGradient>
<linearGradient id="paint3_linear_569_53" x1="17.4857" y1="0" x2="17.4857" y2="36" gradientUnits="userSpaceOnUse">
<stop stop-color="#E82E3C"/>
<stop offset="1" stop-color="#F0858E"/>
</linearGradient>
</defs>
</svg>
