<svg width="36" height="36" viewBox="0 0 36 36" fill="none" xmlns="http://www.w3.org/2000/svg">
<path id="Vector" d="M32.0231 7.65565L33.3087 6.41602C33.7888 5.95303 33.7888 5.20285 33.3087 4.73987L31.9731 3.45204C31.493 2.98905 30.7151 2.98905 30.2349 3.45204L28.9494 4.69167L25.3329 1.20427C24.8528 0.741283 24.0748 0.741678 23.5947 1.20427L22.0617 2.6825C21.5828 3.1443 21.582 3.89251 22.0592 4.35549L19.1654 1.56494C18.6852 1.10195 17.9069 1.10235 17.4272 1.56494L15.8942 3.04317C15.4141 3.50577 15.4141 4.25634 15.8942 4.71893L22.4075 11L10.519 22.4645L4.0053 16.1837C3.52517 15.7208 2.74681 15.7212 2.26709 16.1837L0.73412 17.662C0.253993 18.125 0.253993 18.8751 0.73412 19.3381L3.628 22.1287C3.14746 21.6685 2.37196 21.6693 1.89306 22.1311L0.360096 23.6093C-0.120032 24.0723 -0.120032 24.8225 0.360096 25.2854L3.97662 28.7732L2.69109 30.0129C2.21096 30.4759 2.21096 31.226 2.69109 31.689L4.0266 32.9769C4.50673 33.4398 5.28468 33.4398 5.76481 32.9769L7.05075 31.7368L10.6673 35.2242C11.1474 35.6872 11.9254 35.6872 12.4055 35.2242L13.9384 33.746C14.4173 33.2842 14.4178 32.536 13.9409 32.073L16.8348 34.8636C17.3149 35.3265 18.0929 35.3265 18.573 34.8636L20.106 33.3853C20.5857 32.9227 20.5861 32.1722 20.106 31.7092L13.5927 25.4285L25.4816 13.964L31.9949 20.2447C32.4746 20.7077 33.2529 20.7077 33.7331 20.2447L35.266 18.7665C35.7458 18.3039 35.7462 17.5533 35.266 17.0904L32.3722 14.2998C32.8523 14.76 33.6282 14.7592 34.1071 14.2974L35.6401 12.8192C36.1198 12.3566 36.1202 11.606 35.6401 11.1431L32.0231 7.65565Z" fill="url(#paint0_linear_601_181)"/>
<defs>
<linearGradient id="paint0_linear_601_181" x1="18" y1="0.857178" x2="18" y2="35.5715" gradientUnits="userSpaceOnUse">
<stop stop-color="#E82E3C"/>
<stop offset="1" stop-color="#F0858E"/>
</linearGradient>
</defs>
</svg>
