<svg width="35" height="35" viewBox="0 0 35 35" fill="none" xmlns="http://www.w3.org/2000/svg">
<path id="Vector" d="M34.8985 2.81765L28.8663 16.8224L21.616 33.7465C21.5041 34.0036 21.3162 34.2226 21.0761 34.3758C20.836 34.529 20.5546 34.6093 20.2675 34.6068C20.0773 34.6116 19.8886 34.5729 19.7165 34.494C19.5401 34.4229 19.3799 34.3188 19.245 34.1874C19.1101 34.056 19.0032 33.9 18.9305 33.7283C18.8577 33.5567 18.8206 33.3728 18.8211 33.1871C18.8216 33.0014 18.8598 32.8177 18.9335 32.6464L25.3137 17.7814H1.4604C1.1571 17.7782 0.862461 17.6826 0.617949 17.5081C0.373437 17.3335 0.191363 17.0887 0.0973528 16.8083C-0.00801919 16.5429 -0.0284011 16.2527 0.0388839 15.9758C0.106169 15.6989 0.257975 15.4483 0.474365 15.2569L7.8406 8.69878L3.49046 3.05741C3.34223 2.84414 3.25683 2.59548 3.24353 2.33838C3.23024 2.08128 3.28954 1.82554 3.41502 1.59888C3.54051 1.37222 3.72738 1.18329 3.95539 1.05256C4.1834 0.921834 4.44384 0.854298 4.7085 0.857272H33.5354C33.7743 0.858474 34.0091 0.917035 34.219 1.02775C34.429 1.13847 34.6076 1.29792 34.739 1.49193C34.876 1.68291 34.9623 1.90394 34.9902 2.13527C35.018 2.36661 34.9865 2.60104 34.8985 2.81765Z" fill="url(#paint0_linear_601_193)"/>
<defs>
<linearGradient id="paint0_linear_601_193" x1="17.5" y1="0.857178" x2="17.5" y2="34.6072" gradientUnits="userSpaceOnUse">
<stop stop-color="#E82E3C"/>
<stop offset="1" stop-color="#F0858E"/>
</linearGradient>
</defs>
</svg>
