<svg width="28" height="34" viewBox="0 0 28 34" fill="none" xmlns="http://www.w3.org/2000/svg">
<path id="Vector" d="M10.9886 0.821304C10.8163 0.820873 10.6468 0.864634 10.4971 0.948223C10.3474 1.03181 10.2228 1.15231 10.1355 1.2977L0.135382 17.8229C0.0474664 17.9695 0.000764384 18.1363 9.3037e-06 18.3063C-0.000745776 18.4763 0.0444729 18.6434 0.131082 18.7908C0.217691 18.9382 0.342612 19.0606 0.493182 19.1456C0.643752 19.2305 0.81462 19.2751 0.988465 19.2746H8.46211L5.02666 32.3991C4.9719 32.6041 4.9877 32.821 5.07162 33.0163C5.15553 33.2116 5.3029 33.3744 5.49094 33.4797C5.67898 33.5849 5.89723 33.6266 6.11195 33.5984C6.32668 33.5702 6.52593 33.4737 6.67891 33.3237L27.7133 12.799C27.8506 12.664 27.9439 12.4922 27.9815 12.3054C28.019 12.1185 27.9992 11.925 27.9244 11.7492C27.8497 11.5733 27.7233 11.4231 27.5614 11.3174C27.3994 11.2117 27.209 11.1552 27.0143 11.1552H17.459L23.0763 2.2938C23.1692 2.14739 23.2202 1.97931 23.2242 1.80704C23.2281 1.63478 23.1848 1.46464 23.0987 1.31431C23.0126 1.16398 22.8868 1.03895 22.7345 0.952252C22.5823 0.865549 22.409 0.820332 22.2328 0.821304H10.9886Z" fill="url(#paint0_linear_601_187)"/>
<defs>
<linearGradient id="paint0_linear_601_187" x1="14" y1="0.821289" x2="14" y2="33.607" gradientUnits="userSpaceOnUse">
<stop stop-color="#E82E3C"/>
<stop offset="1" stop-color="#F0858E"/>
</linearGradient>
</defs>
</svg>
