<svg width="36" height="36" viewBox="0 0 36 36" fill="none" xmlns="http://www.w3.org/2000/svg">
<path id="Subtract" fill-rule="evenodd" clip-rule="evenodd" d="M21.0377 25.2856C21.0377 27.0546 20.543 28.6264 19.7751 29.6445C22.0499 30.9435 25.3344 32.9963 25.3344 34.0319V36H10.1208V34.0319C10.1208 32.9967 13.4052 30.9439 15.6804 29.6449C14.913 28.6268 14.4179 27.0546 14.4179 25.286C14.4179 24.7125 14.4687 24.1585 14.567 23.6355C13.5772 22.8452 12.5116 21.8694 11.4684 20.6856C8.48763 17.3029 5.68683 12.2353 5.34674 4.98325C5.32683 4.57539 5.31582 4.16202 5.31286 3.74019C5.30481 2.5056 6.15907 1.42856 7.36274 1.15031C9.10387 0.747953 12.0423 0.247765 16.4208 0.0478588C16.8337 0.0309176 17.2615 0.0139765 17.7028 0H17.7506C18.192 0.0139765 18.6189 0.0283764 19.0327 0.0478588C23.4137 0.2448 26.3551 0.747953 28.0958 1.15031C29.2965 1.42856 30.1516 2.5056 30.1431 3.73722C30.0639 14.2793 24.8647 20.4518 20.8882 23.6351C20.9839 24.1552 21.0377 24.7091 21.0377 25.2856ZM8.39573 19.6153C3.2545 17.3118 1.017 12.1358 0.0975168 8.94791C-0.309918 7.52019 0.60067 6.05351 2.0593 5.77737L3.61832 5.47962C3.67083 6.34659 3.75427 7.19195 3.87243 8.02376C3.78053 8.08518 3.72335 8.15929 3.69286 8.21181C3.63145 8.31261 3.57046 8.47482 3.62721 8.68024C3.67411 8.84375 3.72113 9.01172 3.76922 9.18351C4.02641 10.1023 4.31428 11.1307 4.77921 12.1748C5.589 14.8642 6.79309 17.3469 8.39573 19.6153ZM35.3576 8.94791C34.4381 12.1316 32.2006 17.3075 27.0683 19.6111C28.5134 17.5616 29.7962 15.1094 30.6679 12.1883C31.1426 11.1349 31.4321 10.0969 31.6906 9.17056C31.7372 9.00344 31.7828 8.83995 31.8283 8.68066C31.8897 8.47482 31.8237 8.31261 31.7627 8.21224C31.7322 8.15972 31.6708 8.08094 31.5785 8.01953C31.6966 7.20042 31.7843 6.35548 31.8326 5.47962L33.3958 5.77737C34.8545 6.05351 35.7697 7.52061 35.3576 8.94791ZM17.8 5C17.6486 5 17.5109 5.08308 17.4459 5.21355L16.0597 8.00344C16.0214 8.08028 15.9449 8.13342 15.8564 8.14415L12.6418 8.53782C12.4917 8.55603 12.3659 8.65533 12.3193 8.79254C12.2724 8.9295 12.3128 9.08018 12.423 9.17898L14.7808 11.297C14.8458 11.3552 14.8749 11.441 14.8584 11.5246L14.258 14.5579C14.23 14.6996 14.2902 14.8441 14.4128 14.9287C14.5351 15.0135 14.6981 15.0235 14.8309 14.9544L17.6743 13.473C17.7526 13.4323 17.8475 13.4323 17.9258 13.473L20.7692 14.9544C20.902 15.0235 21.065 15.0135 21.1873 14.9287C21.3099 14.8441 21.3701 14.6996 21.3421 14.5579L20.7417 11.5246C20.7252 11.441 20.7543 11.3552 20.8193 11.297L23.1771 9.17898C23.2873 9.08018 23.3277 8.9295 23.2808 8.79254C23.2342 8.65533 23.1084 8.55603 22.9583 8.53782L19.7437 8.14415C19.6552 8.13342 19.5787 8.08028 19.5404 8.00344L18.1542 5.21355C18.0892 5.08308 17.9515 5 17.8 5Z" fill="url(#paint0_linear_569_76)"/>
<defs>
<linearGradient id="paint0_linear_569_76" x1="17.7284" y1="0" x2="17.7284" y2="36" gradientUnits="userSpaceOnUse">
<stop stop-color="#E82E3C"/>
<stop offset="1" stop-color="#F0858E"/>
</linearGradient>
</defs>
</svg>
