<svg width="37" height="37" viewBox="0 0 37 37" fill="none" xmlns="http://www.w3.org/2000/svg">
<path id="Subtract" fill-rule="evenodd" clip-rule="evenodd" d="M27.1852 3.79997L33.5531 4.70634C34.6009 4.85844 35.5462 5.41351 36.1847 6.25155C36.8232 7.0896 37.1037 8.1433 36.9655 9.18487L35.622 20.088C35.2854 22.7732 34.3156 25.342 32.7915 27.586C31.2673 29.83 29.2316 31.6861 26.8494 33.0037L20.4411 36.5092C19.848 36.8312 19.1827 37 18.5066 37C17.8304 37 17.1652 36.8312 16.572 36.5092L10.1638 33.0037C7.77908 31.6876 5.74071 29.8323 4.21413 27.5882C2.68755 25.3441 1.71578 22.7745 1.37767 20.088L0.0342289 9.18487C-0.103747 8.14129 0.178545 7.08582 0.819872 6.24742C1.4612 5.40901 2.40984 4.85528 3.46001 4.70634L9.82793 3.8133C9.96769 3.78701 10.1033 3.74218 10.231 3.68001L16.6929 0.427745C17.2555 0.1465 17.8766 0 18.5066 0C19.1365 0 19.7577 0.1465 20.3202 0.427745L26.7822 3.66668C26.9099 3.72885 27.0455 3.77368 27.1852 3.79997ZM24.125 20.375H20.375V24.125C20.375 24.6223 20.1774 25.0992 19.8258 25.4508C19.4742 25.8025 18.9973 26 18.5 26C18.0027 26 17.5258 25.8025 17.1742 25.4508C16.8225 25.0992 16.625 24.6223 16.625 24.125V20.375H12.875C12.3777 20.375 11.9008 20.1775 11.5492 19.8258C11.1975 19.4742 11 18.9973 11 18.5C11 18.0027 11.1975 17.5258 11.5492 17.1742C11.9008 16.8225 12.3777 16.625 12.875 16.625H16.625V12.875C16.625 12.3777 16.8225 11.9008 17.1742 11.5492C17.5258 11.1975 18.0027 11 18.5 11C18.9973 11 19.4742 11.1975 19.8258 11.5492C20.1774 11.9008 20.375 12.3777 20.375 12.875V16.625H24.125C24.6223 16.625 25.0992 16.8225 25.4508 17.1742C25.8024 17.5258 26 18.0027 26 18.5C26 18.9973 25.8024 19.4742 25.4508 19.8258C25.0992 20.1775 24.6223 20.375 24.125 20.375Z" fill="url(#paint0_linear_602_208)"/>
<defs>
<linearGradient id="paint0_linear_602_208" x1="18.5" y1="0" x2="18.5" y2="37" gradientUnits="userSpaceOnUse">
<stop stop-color="#E82E3C"/>
<stop offset="1" stop-color="#F0858E"/>
</linearGradient>
</defs>
</svg>
