<svg width="38" height="34" viewBox="0 0 38 34" fill="none" xmlns="http://www.w3.org/2000/svg">
<path id="Vector" d="M26.478 0.576285H26.4336C23.5415 0.582399 20.7396 1.58418 18.4992 3.41319C15.9726 1.19686 13.5789 3.98931e-05 11.3626 3.98931e-05C9.8573 -0.00398298 8.36671 0.296289 6.98037 0.882819C5.59402 1.46935 4.34053 2.33004 3.29518 3.41319C1.79036 5.00505 0.747655 6.97681 0.279075 9.11666C-0.189505 11.2565 -0.0662556 13.4836 0.635584 15.5587C0.635584 15.5587 0.635584 15.6473 0.679911 15.6473H6.30938L8.96898 11.4806C9.09294 11.2748 9.26868 11.1052 9.47868 10.9885C9.68868 10.8718 9.92559 10.8123 10.1658 10.8157C10.39 10.8309 10.6073 10.899 10.8 11.0146C10.9927 11.1302 11.1551 11.2899 11.274 11.4806L15.0417 18.7058L19.0754 12.0569C19.1808 11.8867 19.3232 11.7425 19.4921 11.6351C19.6609 11.5276 19.8518 11.4597 20.0506 11.4363C20.2498 11.4164 20.4509 11.4377 20.6415 11.4987C20.8321 11.5597 21.0082 11.6591 21.1588 11.7909L24.8379 15.337C25.0875 15.5798 25.232 15.9107 25.2403 16.2588C25.2486 16.6069 25.12 16.9444 24.8822 17.1987C24.7613 17.329 24.6155 17.4337 24.4534 17.5067C24.2913 17.5796 24.1162 17.6193 23.9386 17.6234C23.7609 17.6276 23.5841 17.596 23.4188 17.5307C23.2535 17.4654 23.103 17.3676 22.9762 17.2431L20.4939 14.8494L16.0612 22.0747C15.9517 22.2735 15.7914 22.4397 15.5968 22.5565C15.4021 22.6733 15.18 22.7364 14.9531 22.7396H14.9087C14.6685 22.7222 14.4366 22.6439 14.2349 22.512C14.0333 22.3802 13.8685 22.1992 13.7562 21.986L9.94416 14.7165L8.12677 17.5977C8.01028 17.7942 7.84937 17.9608 7.65693 18.0839C7.46449 18.2071 7.24588 18.2835 7.01861 18.3069H1.92105C2.31999 18.7502 2.80759 19.4151 3.3395 19.947L17.5683 33.6439C17.6906 33.7641 17.8364 33.8577 17.9966 33.9187C18.1568 33.9797 18.328 34.0069 18.4992 33.9985C18.8499 33.9935 19.1845 33.8501 19.43 33.5996L33.7032 19.814C35.8366 17.6352 37.0313 14.7073 37.0313 11.6579C37.0313 8.60859 35.8366 5.68064 33.7032 3.50184C32.7585 2.552 31.6314 1.80316 30.3897 1.30038C29.148 0.797605 27.8174 0.551297 26.478 0.576285Z" fill="url(#paint0_linear_569_102)"/>
<defs>
<linearGradient id="paint0_linear_569_102" x1="18.5157" y1="0" x2="18.5157" y2="34" gradientUnits="userSpaceOnUse">
<stop stop-color="#E82E3C"/>
<stop offset="1" stop-color="#F0858E"/>
</linearGradient>
</defs>
</svg>
