<svg width="79" height="43" viewBox="0 0 79 43" fill="none" xmlns="http://www.w3.org/2000/svg">
<g id="Vector">
<path d="M93.8953 36.4364C93.8699 35.5538 93.7569 34.6761 93.558 33.8162C92.6802 34.2291 91.7173 34.427 90.7491 34.3934C89.7809 34.3599 88.8353 34.096 87.9907 33.6235C84.4156 31.8803 83.3005 27.9401 82.1933 24.4214C79.6862 16.4537 73.6104 10.1762 64.665 10.6276C62.0932 10.7574 60.7826 11.3036 59.9491 12.949C59.8024 13.243 59.6762 13.5468 59.5713 13.8581C59.4908 14.0925 59.4134 14.3374 59.3411 14.6055C58.843 16.0483 58.4641 17.5293 58.2082 19.0335C58.2007 19.111 58.1916 19.1885 58.1868 19.2657C58.1656 19.5841 58.1708 19.9037 58.2023 20.2211C58.4344 19.5375 58.8335 18.9223 59.3631 18.4314C60.0987 17.8517 60.9883 17.5016 61.9205 17.4251C63.6579 17.2941 65.4044 17.4277 67.1002 17.8213C70.5054 18.555 73.6119 20.2881 76.0229 22.7995C80.7723 27.7867 79.7999 37.786 86.6365 40.6378C90.055 42.0638 91.9647 40.9552 93.1922 38.8995C93.5411 38.1153 93.7778 37.2861 93.8953 36.4364Z" fill="url(#paint0_linear_729_1606)"/>
<path d="M133 28.078C121.192 37.4497 110.809 17.3299 99.3978 17.0324C97.7729 16.99 95.5062 17.2108 94.2068 18.3152C93.925 18.7378 93.7158 19.2044 93.5879 19.6957C93.1013 21.6227 94.3704 24.2996 94.3704 24.2996C107.687 20.2339 118.14 45.273 131.202 34.9057C132.7 33.7165 131.551 29.2277 133 28.078Z" fill="url(#paint1_linear_729_1606)"/>
<path d="M68.4143 33.8711C66.9374 35.0851 65.1456 35.8522 63.2501 36.0819C61.3547 36.3115 59.4348 35.9942 57.7169 35.1672C52.2594 32.5838 49.589 26.4199 46.8651 21.4237C41.1148 10.8765 32.5355 -1.06932 18.9914 0.0764718C13.127 0.572565 6.83747 3.28582 3.53916 8.39069C1.74482 11.1677 1.01907 14.8692 0.327225 18.06C0.678437 16.9601 1.14925 15.9019 1.7312 14.9043C3.79143 12.8572 6.0383 11.0072 8.44232 9.37863C23.7389 1.42156 36.3993 13.1711 43.6733 25.7553C47.0393 31.5784 49.9686 39.9813 56.9279 42.423C61.5544 44.0462 66.8731 42.1881 68.6586 37.5621C68.6784 37.5109 68.7017 37.4625 68.7206 37.4105C68.7363 37.3673 68.7571 37.328 68.7722 37.2843C69.6346 35.071 70.2128 32.758 70.4931 30.4006C70.1162 31.7191 69.3992 32.9161 68.4143 33.8711Z" fill="url(#paint2_linear_729_1606)"/>
<path d="M94.2068 18.3152C93.9721 18.5061 93.7685 18.7325 93.6035 18.9861C92.6463 20.524 92.3055 23.4807 91.9501 25.2578C91.343 28.2931 92.7926 31.0204 93.558 33.8162C93.7569 34.6761 93.8699 35.5538 93.8953 36.4364C93.7778 37.2861 93.5411 38.1153 93.1922 38.8995C93.4924 38.387 93.7502 37.851 93.9632 37.2967C94.1152 36.9098 94.2581 36.5125 94.3884 36.1026C94.6431 35.3016 94.8634 34.4698 95.0731 33.6541C95.2173 33.0933 95.3532 32.5572 95.4672 32.0288C95.4955 31.8981 95.5229 31.7675 95.5478 31.6376C95.8155 30.4244 95.815 29.1681 95.5463 27.9566C95.2193 26.7175 94.8268 25.4967 94.3704 24.2996C94.3704 24.2996 93.1013 21.6227 93.5879 19.6957C93.7158 19.2044 93.925 18.7378 94.2068 18.3152Z" fill="url(#paint3_linear_729_1606)"/>
<path d="M59.3631 18.4314C58.8335 18.9223 58.4344 19.5375 58.2023 20.2211C58.2303 20.5092 58.2881 20.7936 58.3748 21.0696C60.0676 26.3533 66.7728 28.849 68.4143 33.8711C69.3992 32.9161 70.1162 31.7191 70.4931 30.4006C70.6864 28.6486 70.3316 26.8814 69.4777 25.3428C67.883 22.644 64.2198 20.244 61.9205 17.4251C60.9883 17.5016 60.0987 17.8517 59.3631 18.4314Z" fill="url(#paint4_linear_729_1606)"/>
<path d="M3.89035 28.2903C5.69657 29.5911 7.88638 30.251 10.1135 30.1657C12.3407 30.0803 14.478 29.2546 16.1876 27.8192C17.6729 26.5029 16.5446 22.2687 17.9859 20.9914C14.0428 24.4858 7.91345 23.9174 4.21972 20.2742C3.32144 19.4075 2.62288 18.3552 2.17247 17.1901C1.94854 16.5949 1.79965 15.9738 1.72923 15.3413C1.73169 15.1781 1.73194 15.0364 1.7312 14.9043C1.14925 15.9019 0.678437 16.9601 0.327225 18.06C-0.558813 22.1465 0.266295 25.8536 3.89035 28.2903Z" fill="url(#paint5_linear_729_1606)"/>
</g>
<defs>
<linearGradient id="paint0_linear_729_1606" x1="0.0657903" y1="21.5" x2="132.989" y2="21.5" gradientUnits="userSpaceOnUse">
<stop stop-color="#D50B01"/>
<stop offset="0.41388" stop-color="#A00902"/>
<stop offset="0.67225" stop-color="#C40A01"/>
<stop offset="0.68182" stop-color="#FF8A8A"/>
<stop offset="0.86364" stop-color="#F90C00"/>
<stop offset="1" stop-color="#B20A02"/>
</linearGradient>
<linearGradient id="paint1_linear_729_1606" x1="-0.00303781" y1="21.5" x2="133" y2="21.5" gradientUnits="userSpaceOnUse">
<stop stop-color="#D50B01"/>
<stop offset="0.41388" stop-color="#A00902"/>
<stop offset="0.67225" stop-color="#C40A01"/>
<stop offset="0.68182" stop-color="#FF8A8A"/>
<stop offset="0.86364" stop-color="#F90C00"/>
<stop offset="1" stop-color="#B20A02"/>
</linearGradient>
<linearGradient id="paint2_linear_729_1606" x1="-1.967e-07" y1="21.5" x2="132.967" y2="21.5" gradientUnits="userSpaceOnUse">
<stop stop-color="#D50B01"/>
<stop offset="0.41388" stop-color="#A00902"/>
<stop offset="0.67225" stop-color="#C40A01"/>
<stop offset="0.68182" stop-color="#FF8A8A"/>
<stop offset="0.86364" stop-color="#F90C00"/>
<stop offset="1" stop-color="#B20A02"/>
</linearGradient>
<linearGradient id="paint3_linear_729_1606" x1="-0.0011605" y1="21.5" x2="132.999" y2="21.5" gradientUnits="userSpaceOnUse">
<stop stop-color="#FC4C46"/>
<stop offset="0.41388" stop-color="#F30D01"/>
<stop offset="0.67197" stop-color="#C40A01"/>
<stop offset="0.86364" stop-color="#E30B00"/>
<stop offset="1" stop-color="#FB3329"/>
</linearGradient>
<linearGradient id="paint4_linear_729_1606" x1="0" y1="21.5" x2="132.996" y2="21.5" gradientUnits="userSpaceOnUse">
<stop stop-color="#FC443D"/>
<stop offset="0.41388" stop-color="#FB3D35"/>
<stop offset="0.67225" stop-color="#C10903"/>
<stop offset="0.86333" stop-color="#E60B01"/>
<stop offset="1" stop-color="#B90A02"/>
</linearGradient>
<linearGradient id="paint5_linear_729_1606" x1="-0.513876" y1="20.8868" x2="16.9955" y2="26.0913" gradientUnits="userSpaceOnUse">
<stop stop-color="#F70D00"/>
<stop offset="0.41372" stop-color="#D50B02"/>
<stop offset="0.67225" stop-color="#B50A03"/>
<stop offset="0.86364" stop-color="#F80D02"/>
<stop offset="1" stop-color="#FB3832"/>
</linearGradient>
</defs>
</svg>
