<svg width="369" height="120" viewBox="0 0 369 120" fill="none" xmlns="http://www.w3.org/2000/svg">
<path d="M260.427 101.592C260.357 99.1343 260.043 96.6903 259.492 94.296C257.057 95.4456 254.386 95.9966 251.701 95.9033C249.016 95.8099 246.393 95.075 244.05 93.7592C234.134 88.9051 231.042 77.9332 227.971 68.1349C221.017 45.9481 204.165 28.4677 179.354 29.7246C172.221 30.086 168.586 31.607 166.274 36.1888C165.868 37.0075 165.517 37.8533 165.227 38.7202C165.003 39.3729 164.789 40.055 164.588 40.8015C163.207 44.8192 162.155 48.9432 161.446 53.1318C161.425 53.3475 161.4 53.5635 161.386 53.7783C161.328 54.665 161.342 55.5548 161.43 56.4386C162.073 54.5351 163.18 52.8221 164.649 51.4552C166.689 49.8408 169.157 48.8659 171.742 48.6529C176.561 48.2881 181.405 48.6601 186.108 49.7562C195.553 51.7992 204.169 56.6254 210.857 63.6186C224.029 77.5059 221.332 105.35 240.294 113.291C249.776 117.262 255.073 114.175 258.477 108.451C259.445 106.267 260.101 103.958 260.427 101.592Z" fill="url(#paint0_linear_729_1605)"/>
<path d="M368.888 78.3171C336.138 104.414 307.34 48.3878 275.689 47.5594C271.182 47.4414 264.895 48.0562 261.291 51.1315C260.51 52.3082 259.929 53.6076 259.575 54.9758C258.225 60.3416 261.745 67.7957 261.745 67.7957C298.679 56.4744 327.672 126.199 363.9 97.3297C368.055 94.0184 364.87 81.5185 368.888 78.3171Z" fill="url(#paint1_linear_729_1605)"/>
<path d="M189.753 94.4488C185.657 97.8294 180.687 99.9655 175.43 100.605C170.173 101.244 164.848 100.361 160.083 98.0579C144.946 90.864 137.54 73.7001 129.985 59.7876C114.036 30.4175 90.2403 -2.84691 52.6744 0.343682C36.4089 1.72511 18.9644 9.28049 9.81617 23.4956C4.83943 31.2286 2.82648 41.5358 0.90759 50.4209C1.88171 47.3582 3.18756 44.4115 4.80163 41.6335C10.5159 35.9331 16.7478 30.7816 23.4156 26.2466C65.8421 4.08923 100.957 36.8073 121.132 71.8493C130.468 88.0643 138.593 111.463 157.895 118.262C170.727 122.783 185.479 117.608 190.431 104.727C190.486 104.584 190.551 104.449 190.603 104.305C190.647 104.184 190.704 104.075 190.746 103.953C193.138 97.7902 194.742 91.3491 195.519 84.7847C194.474 88.4563 192.485 91.7894 189.753 94.4488Z" fill="url(#paint2_linear_729_1605)"/>
<path d="M261.291 51.1315C260.64 51.6631 260.076 52.2935 259.618 52.9998C256.963 57.2821 256.018 65.5155 255.032 70.4641C253.348 78.9161 257.369 86.5108 259.492 94.296C260.043 96.6903 260.357 99.1343 260.427 101.592C260.101 103.958 259.445 106.267 258.477 108.451C259.31 107.024 260.025 105.531 260.616 103.988C261.037 102.91 261.434 101.804 261.795 100.663C262.501 98.4322 263.112 96.1158 263.694 93.8446C264.094 92.2829 264.471 90.79 264.787 89.3187C264.865 88.9548 264.942 88.5911 265.011 88.2294C265.753 84.851 265.752 81.3526 265.006 77.9792C264.1 74.5286 263.011 71.1293 261.745 67.7957C261.745 67.7957 258.225 60.3416 259.575 54.9758C259.929 53.6076 260.51 52.3082 261.291 51.1315Z" fill="url(#paint3_linear_729_1605)"/>
<path d="M164.649 51.4552C163.18 52.8221 162.073 54.5351 161.43 56.4386C161.507 57.241 161.667 58.0328 161.908 58.8014C166.603 73.5145 185.201 80.464 189.753 94.4488C192.485 91.7894 194.474 88.4563 195.519 84.7847C196.055 79.906 195.071 74.9852 192.703 70.7009C188.28 63.1857 178.12 56.5025 171.742 48.6529C169.157 48.8659 166.689 49.8408 164.649 51.4552Z" fill="url(#paint4_linear_729_1605)"/>
<path d="M10.7902 78.9085C15.8 82.5306 21.8736 84.3682 28.0508 84.1305C34.228 83.8929 40.1561 81.5937 44.8978 77.5965C49.0175 73.931 45.8879 62.1405 49.8856 58.5838C38.949 68.3143 21.9487 66.7316 11.7038 56.5866C9.21232 54.1732 7.2748 51.2428 6.02556 47.9985C5.40446 46.3411 4.99149 44.6117 4.79617 42.8505C4.80301 42.396 4.80369 42.0012 4.80163 41.6335C3.18756 44.4115 1.88171 47.3582 0.90759 50.4209C-1.54992 61.8002 0.738593 72.123 10.7902 78.9085Z" fill="url(#paint5_linear_729_1605)"/>
<defs>
<linearGradient id="paint0_linear_729_1605" x1="0.182475" y1="60" x2="368.858" y2="60" gradientUnits="userSpaceOnUse">
<stop stop-color="#D50B01"/>
<stop offset="0.41388" stop-color="#A00902"/>
<stop offset="0.67225" stop-color="#C40A01"/>
<stop offset="0.68182" stop-color="#FF8A8A"/>
<stop offset="0.86364" stop-color="#F90C00"/>
<stop offset="1" stop-color="#B20A02"/>
</linearGradient>
<linearGradient id="paint1_linear_729_1605" x1="-0.00842564" y1="60" x2="368.888" y2="60" gradientUnits="userSpaceOnUse">
<stop stop-color="#D50B01"/>
<stop offset="0.41388" stop-color="#A00902"/>
<stop offset="0.67225" stop-color="#C40A01"/>
<stop offset="0.68182" stop-color="#FF8A8A"/>
<stop offset="0.86364" stop-color="#F90C00"/>
<stop offset="1" stop-color="#B20A02"/>
</linearGradient>
<linearGradient id="paint2_linear_729_1605" x1="-5.45565e-07" y1="60" x2="368.797" y2="60" gradientUnits="userSpaceOnUse">
<stop stop-color="#D50B01"/>
<stop offset="0.41388" stop-color="#A00902"/>
<stop offset="0.67225" stop-color="#C40A01"/>
<stop offset="0.68182" stop-color="#FF8A8A"/>
<stop offset="0.86364" stop-color="#F90C00"/>
<stop offset="1" stop-color="#B20A02"/>
</linearGradient>
<linearGradient id="paint3_linear_729_1605" x1="-0.00321876" y1="60" x2="368.884" y2="60" gradientUnits="userSpaceOnUse">
<stop stop-color="#FC4C46"/>
<stop offset="0.41388" stop-color="#F30D01"/>
<stop offset="0.67197" stop-color="#C40A01"/>
<stop offset="0.86364" stop-color="#E30B00"/>
<stop offset="1" stop-color="#FB3329"/>
</linearGradient>
<linearGradient id="paint4_linear_729_1605" x1="0" y1="59.9999" x2="368.877" y2="59.9999" gradientUnits="userSpaceOnUse">
<stop stop-color="#FC443D"/>
<stop offset="0.41388" stop-color="#FB3D35"/>
<stop offset="0.67225" stop-color="#C10903"/>
<stop offset="0.86333" stop-color="#E60B01"/>
<stop offset="1" stop-color="#B90A02"/>
</linearGradient>
<linearGradient id="paint5_linear_729_1605" x1="-1.42525" y1="58.2926" x2="47.1698" y2="72.6798" gradientUnits="userSpaceOnUse">
<stop stop-color="#F70D00"/>
<stop offset="0.41372" stop-color="#D50B02"/>
<stop offset="0.67225" stop-color="#B50A03"/>
<stop offset="0.86364" stop-color="#F80D02"/>
<stop offset="1" stop-color="#FB3832"/>
</linearGradient>
</defs>
</svg>
