<svg width="232" height="61" viewBox="0 0 232 61" fill="none" xmlns="http://www.w3.org/2000/svg">
<path d="M20.9888 31.286L23.0164 31.011L23.5679 30.9356C31.8419 13.7757 31.4637 5.83087 31.3173 4.14213L31.3198 4.1397L27.0083 7.46363C27.1132 7.12053 27.2108 6.80663 27.2938 6.5414L33.8354 1.50197C34.1404 1.26593 34.565 1.6285 34.1331 1.9789L33.0814 2.78433L33.0839 2.7819C33.7402 5.22497 32.7374 15.6542 25.7126 30.646C26.1811 30.5803 26.6716 30.5097 27.2328 30.4221C36.1046 13.8657 52.3087 16.5716 45.8158 24.9544C42.0631 29.2152 35.785 30.882 29.0237 31.9746C22.4382 45.3141 27.8501 56.2422 36.1754 56.3858C52.2135 56.6583 61.2342 32.5245 57.6035 19.7982C54.8609 10.1865 45.8646 6.69227 36.9025 17.7396L34.8163 15.7856C42.9878 5.71407 55.6612 8.5927 59.7506 19.1996C65.165 33.2448 53.3432 58.8581 35.9143 58.1451C26.8399 57.7728 20.696 45.8422 26.43 32.3664C25.8054 32.4564 25.2954 32.527 24.783 32.5975C20.9815 40.6446 17.4288 46.3094 14.2715 50.1127C14.3105 49.132 14.3081 48.1879 14.252 47.3387C16.7359 44.0001 19.5516 39.3014 22.6382 32.8847L21.2377 33.0745V33.0769C-2.10336 35.6684 -1.44212 63.8926 11.2898 50.8597C11.3435 51.6749 11.3874 52.4681 11.4167 53.1495C-1.02 64.6859 -5.39248 45.0221 9.64036 35.464C13.0734 33.2813 16.9799 31.96 20.9888 31.286ZM25.088 8.23743L24.4194 8.75087C24.2169 8.9066 24.3853 9.34703 24.5854 9.19617L24.6781 9.12317C24.8147 8.83847 24.9514 8.53917 25.088 8.23743ZM30.1315 29.9549C36.0119 28.9135 41.3262 27.3148 44.4543 23.7645C50.2468 17.1921 37.5052 17.7347 30.1315 29.9549Z" fill="#E82E3C"/>
<path d="M31.0514 3.5849C31.2026 3.44863 31.2539 3.2856 31.2441 3.2126C31.2246 3.0447 30.517 3.35373 30.2022 3.4097C30.3194 3.04227 30.234 2.8476 30.1266 2.83787C30.0534 2.83057 29.9265 3.20043 29.785 3.3878C29.5068 3.75523 29.1604 4.09103 28.9749 4.22243C28.6943 4.41953 27.14 4.40737 26.5764 5.20793C25.9298 6.13017 24.7122 9.31053 23.8875 10.6464C23.5118 11.2572 22.1405 12.8243 20.7741 14.1577C19.4809 15.4206 19.4199 15.1286 19.0319 15.4936C18.7391 15.6883 18.2414 15.7808 17.6314 15.8173C17.1482 15.6834 17.0067 14.968 17.1238 14.3597C18.6171 13.07 19.3711 9.79963 17.6558 8.53917C17.6802 8.41993 17.6948 8.29827 17.6948 8.1693C17.6948 7.213 16.9164 6.4392 15.9575 6.4392C14.9986 6.4392 14.2227 7.213 14.2227 8.1693C14.2227 8.24473 14.2276 8.32017 14.2373 8.39317C12.2853 9.46627 13.049 12.6612 14.4252 14.1358C14.5643 15.0532 14.069 15.4085 13.7908 15.7321C13.3418 15.7199 12.9124 15.7151 12.5269 15.7321C11.5777 14.878 9.86484 15.1919 9.86484 15.1919C9.86484 15.1919 9.655 15.0848 9.3256 14.9218C9.33292 14.3865 9.54032 13.7781 9.23776 11.0796C8.85956 7.7313 9.57692 6.65577 9.65012 5.25173C10.6042 3.3878 9.70136 1.38517 9.6306 1.10777C9.55984 0.830367 9.4476 0.538367 9.21336 0.623534C8.97668 0.706267 8.74 1.37787 8.7766 1.9789C8.86444 3.32697 7.9714 4.3149 7.2882 4.8843C6.605 5.4537 6.76604 6.1253 7.47364 6.6071C7.71032 6.77013 7.48584 7.23977 7.15888 8.5343C5.85592 9.8118 3.12556 13.1503 3.2378 13.9339C3.311 14.4522 5.11172 15.7151 6.90268 16.9001C7.15888 21.504 3.982 28.8964 7.91284 31.2276C9.45248 32.1401 9.49884 33.0623 9.63304 34.1914C9.63304 34.6294 9.63548 35.0528 9.64036 35.464C11.1141 34.5272 12.7733 33.6852 14.6326 32.982C15.9892 29.8187 15.6403 30.8358 16.4821 27.7722C16.8213 26.5239 19.2881 23.9616 19.8298 22.6111C20.3715 21.2631 20.6862 18.4307 21.2816 17.9489C21.2816 17.9464 21.2816 17.9464 21.2816 17.9464C21.4329 17.8491 21.589 17.7299 21.7501 17.5766C22.4528 16.9171 25.0246 12.4276 25.4833 11.8582C25.942 11.2864 27.2816 6.36377 27.5524 5.80897C27.7574 5.99147 28.3796 5.899 28.4381 5.85033C28.4967 5.8041 29.0018 5.8771 29.2214 5.9866C29.4434 6.09853 30.1437 6.1253 30.2096 5.96713C30.2779 5.8114 29.929 5.7019 29.6435 5.60943C29.3556 5.51697 29.1067 5.1909 29.1067 5.1909C29.2824 5.18603 30.3852 4.19323 30.6 3.99613C30.7024 3.90367 30.9879 3.6433 31.0514 3.5849ZM9.69892 38.2404C9.84288 42.3528 10.2016 44.6425 10.57 45.1462C11.0434 45.7935 11.6046 54.5851 11.4142 55.2275C11.1898 55.994 10.9043 56.2252 10.8506 56.6437C10.7408 57.5124 11.7851 57.9529 11.7192 58.3909C11.6509 58.8313 11.5338 60.2743 12.6538 60.3716C13.8152 60.4689 14.1958 60.1696 13.8567 59.7706C13.5151 59.3715 13.1954 59.4104 13.2345 57.9723C13.2735 56.5342 13.3736 56.3128 13.2198 55.4684C13.7688 51.9401 14.0055 47.4457 13.2247 45.4212C12.4439 43.3942 13.2052 40.9366 13.6054 39.3549C13.9274 38.0774 13.9762 36.8486 14.0568 35.7438C12.4171 36.4422 10.9702 37.2914 9.69892 38.2404ZM6.59036 11.464C6.47324 12.3327 6.43176 13.0214 6.43908 13.5859C6.07308 13.4375 5.76808 13.3328 5.58264 13.3036C5.67048 13.216 6.13896 12.3352 6.59036 11.464ZM11.3972 23.9616C11.1898 24.0736 10.958 24.2269 10.7457 24.3753C10.7725 22.8764 10.531 21.3701 10.3211 19.1947C11.4069 20.0926 11.5777 21.757 11.7607 22.2972C11.9388 22.8374 11.3972 23.9616 11.3972 23.9616Z" fill="#4E606F"/>
<path d="M76.2353 30.4489C76.2353 30.0206 76.228 29.5924 76.2158 29.1665C76.2011 28.7383 76.2084 28.2954 76.2353 27.8404H73.6196V52.0034H70.3183V19.1315H73.6196V25.1126H76.3963C76.5305 24.0419 76.777 23.0321 77.1405 22.0807C77.5016 21.1317 78.0872 20.2824 78.89 19.533C79.3731 19.1047 79.8758 18.803 80.4004 18.6302C80.9225 18.455 81.4398 18.3893 81.9498 18.4282C82.4597 18.4696 82.9428 18.6034 83.3991 18.8297C83.8554 19.0585 84.2702 19.3456 84.646 19.6936C85.317 20.3627 85.8196 21.1122 86.1563 21.942C86.4906 22.7693 86.7322 23.6526 86.881 24.5894C87.0274 25.5263 87.1006 26.4899 87.1006 27.4802C87.1006 28.4706 87.1006 29.4585 87.1006 30.4489V39.9608C87.1006 40.9512 87.1006 41.9415 87.1006 42.9319C87.1006 43.9223 87.0274 44.8859 86.881 45.8227C86.7322 46.7571 86.4906 47.6404 86.1563 48.4702C85.8196 49.2999 85.317 50.0494 84.646 50.7186C84.2702 51.0933 83.8554 51.3877 83.3991 51.6019C82.9428 51.816 82.4597 51.9425 81.9498 51.9815C81.4398 52.0228 80.9225 51.9547 80.4004 51.7819C79.8758 51.6092 79.3731 51.3074 78.89 50.8792C78.1653 50.21 77.6236 49.4532 77.2601 48.6113C76.899 47.7694 76.6428 46.8788 76.4964 45.9419C76.35 45.0051 76.267 44.0293 76.2548 43.0122C76.2402 41.9951 76.2353 40.9779 76.2353 39.9608V30.4489ZM83.8017 29.9671C83.8017 29.3782 83.7944 28.5825 83.7822 27.58C83.7676 26.5775 83.6992 25.6066 83.5797 24.6697C83.4577 23.7329 83.2576 22.925 82.977 22.2413C82.694 21.5599 82.284 21.2193 81.7472 21.2193C81.186 21.2193 80.7493 21.5867 80.4394 22.3216C80.132 23.0589 79.9099 23.9081 79.7757 24.8717C79.6415 25.8329 79.561 26.7965 79.5342 27.7601C79.5073 28.7237 79.5073 29.4585 79.5342 29.9671V40.4426C79.5073 40.9512 79.5073 41.6885 79.5342 42.6496C79.561 43.6132 79.6415 44.5768 79.7757 45.5404C79.9099 46.504 80.132 47.3533 80.4394 48.0881C80.7493 48.8254 81.186 49.1929 81.7472 49.1929C82.123 49.1929 82.4256 49.0323 82.6549 48.7111C82.8818 48.3899 83.077 47.9762 83.2381 47.4676C83.3991 46.9591 83.5138 46.3824 83.5797 45.7424C83.6456 45.1 83.6992 44.4503 83.7407 43.7957C83.7822 43.1387 83.8017 42.5182 83.8017 41.9294C83.8017 41.3405 83.8017 40.8441 83.8017 40.4426V29.9671ZM93.1786 25.1126H97.2437V19.1315H100.504V52.0034H97.2437V27.8404H93.1786V52.0034H89.8773V19.1315H93.1786V25.1126ZM104.366 52.0423C104.876 52.0423 105.379 52.0228 105.876 51.9815C106.372 51.9425 106.848 51.8963 107.304 51.8428C108.109 51.7089 108.941 51.507 109.8 51.2393C110.659 50.9716 111.369 50.5701 111.932 50.0348C112.765 49.2342 113.436 48.2755 113.945 47.1659C114.455 46.0563 114.836 44.8786 115.092 43.6351C115.346 42.3893 115.48 41.1191 115.495 39.8221C115.507 38.5227 115.441 37.2866 115.292 36.1088C115.146 34.9311 114.931 33.8483 114.648 32.8579C114.368 31.8675 114.053 31.0645 113.704 30.4489C113.301 29.7262 112.879 29.0911 112.435 28.5436C111.993 27.9937 111.523 27.5192 111.027 27.1177C110.532 26.7162 110 26.3633 109.439 26.0543C108.873 25.7477 108.27 25.4581 107.626 25.1929V19.1704H104.366V52.0423ZM107.626 28.1616C108.592 28.5095 109.451 29.2858 110.203 30.4903C110.954 31.6948 111.503 33.218 111.852 35.0649C112.04 36.0553 112.162 37.0724 112.216 38.1163C112.269 39.1602 112.262 40.1701 112.194 41.1458C112.128 42.1216 111.993 43.0463 111.791 43.915C111.591 44.7837 111.315 45.5404 110.966 46.1828C110.832 46.397 110.678 46.65 110.505 46.9445C110.329 47.2389 110.107 47.5285 109.839 47.8083C109.571 48.0881 109.256 48.3436 108.895 48.5699C108.531 48.7987 108.109 48.952 107.626 49.0323V28.1616ZM120.665 52.0034H117.366V19.1315H120.665V52.0034ZM130.889 21.7011H126.985V25.1126H130.889V27.8014H126.985V49.6747H130.928V52.0034H123.684V19.1315H130.889V21.7011ZM150.765 19.1315V21.8203H147.142V52.0034H143.882V21.8203H140.583V19.1315H150.765ZM159.137 19.0098L162.597 52.0034H159.337L158.976 47.4263H155.996L155.513 52.0034H152.253L156.36 19.0098H159.137ZM156.48 44.6985H158.532L157.646 28.9256L156.48 44.6985ZM170.044 28.3222L167.909 52.0034H164.649L168.472 19.0098H171.854L174.992 52.0034H171.732L170.044 28.3222ZM182.8 19.0098L186.262 52.0034H183.002L182.639 47.4263H179.662L179.179 52.0034H175.919L180.023 19.0098H182.8ZM180.145 44.6985H182.197L181.311 28.9256L180.145 44.6985ZM192.096 25.1126H196.161V19.1315H199.421V52.0034H196.161V27.8404H192.096V52.0034H188.797V19.1315H192.096V25.1126ZM212.863 19.1315V21.8203H209.242V52.0034H205.982V21.8203H202.681V19.1315H212.863ZM215.601 52.0423C216.111 52.0423 216.613 52.0228 217.109 51.9815C217.606 51.9425 218.085 51.9085 218.539 51.8428C219.346 51.7235 220.176 51.507 221.035 51.2393C221.891 50.9716 222.606 50.5726 223.167 50.0348C224.002 49.2367 224.67 48.2755 225.18 47.1659C225.688 46.0563 226.071 44.8786 226.327 43.6351C226.581 42.3893 226.715 41.1191 226.727 39.8221C226.742 38.5227 226.676 37.2866 226.527 36.1088C226.381 34.9311 226.166 33.8483 225.883 32.8579C225.602 31.8675 225.283 31.067 224.939 30.4489C224.534 29.7286 224.111 29.0911 223.67 28.5436C223.228 27.9937 222.757 27.5192 222.262 27.1177C221.764 26.7162 221.235 26.3633 220.671 26.0543C220.107 25.7477 219.505 25.4581 218.861 25.1929V19.1704H215.601V52.0423ZM218.861 28.1616C219.827 28.5095 220.686 29.2858 221.435 30.4903C222.186 31.6948 222.738 33.218 223.087 35.0649C223.275 36.0553 223.394 37.0724 223.448 38.1163C223.501 39.1602 223.497 40.1701 223.428 41.1458C223.36 42.1216 223.228 43.0463 223.026 43.915C222.826 44.7837 222.56 45.5453 222.201 46.1828C222.077 46.4018 221.913 46.65 221.737 46.9445C221.564 47.2389 221.342 47.5285 221.074 47.8083C220.805 48.0881 220.491 48.3436 220.129 48.5699C219.766 48.7987 219.344 48.952 218.861 49.0323V28.1616ZM231.9 52.0034H228.599V19.1315H231.9V52.0034Z" fill="#4E606F"/>
</svg>
