<svg width="20" height="20" viewBox="0 0 20 20" fill="none" xmlns="http://www.w3.org/2000/svg">
<path id="Union" fill-rule="evenodd" clip-rule="evenodd" d="M8.63631 18.6364C8.63631 19.3894 9.24689 20 9.99993 20C10.753 20 11.3635 19.3894 11.3635 18.6364L11.3635 11.3636L18.6364 11.3636C19.3894 11.3636 20 10.753 20 10C20 9.24697 19.3894 8.63638 18.6364 8.63638L11.3635 8.63638L11.3635 1.36362C11.3635 0.610582 10.753 0 9.99992 0C9.24689 0 8.63631 0.610582 8.63631 1.36362V8.63638L1.36362 8.63639C0.610582 8.63639 0 9.24697 0 10C0 10.753 0.610582 11.3636 1.36362 11.3636L8.63631 11.3636V18.6364Z" fill="#A4B0BB"/>
</svg>
