<svg width="25" height="16" viewBox="0 0 25 16" fill="none" xmlns="http://www.w3.org/2000/svg">
<path d="M14.1743 6.28311C14.0609 6.09196 14.1107 5.89514 14.1102 5.70804C14.1059 4.03316 14.1051 2.35828 14.1077 0.683385C14.1077 0.548627 14.1019 0.413669 14.1073 0.27916C14.1153 0.0794698 14.0162 0.0101145 13.8335 0.0104359C12.6865 0.0124473 11.5396 0.0146262 10.3926 0.00750979C10.1408 0.00594918 10.0608 0.125904 10.0761 0.360669C10.0835 0.475661 10.0771 0.591598 10.0771 0.707109C10.0771 2.8248 10.0771 4.9425 10.0771 7.06019C10.0771 8.2153 10.0769 9.3704 10.0764 10.5255C10.0753 11.1059 10.0527 11.1226 9.50868 10.9058C8.82535 10.6289 8.19793 10.2248 7.65811 9.71397C6.38281 8.52817 5.59615 7.03517 5.07288 5.3815C4.57178 3.79789 4.33515 2.1671 4.28545 0.50565C4.27134 0.0336892 4.26866 0.0157674 3.93469 0.0134895C2.73137 0.00527608 1.52796 0.013726 0.324627 0.00739862C0.0864769 0.00614551 -0.0193285 0.0874182 0.00288895 0.343267C0.0411074 0.783382 0.0634942 1.22494 0.0919491 1.66594C0.201377 3.51083 0.553154 5.33217 1.13777 7.08072C1.99437 9.60814 3.34168 11.7939 5.4471 13.4323C7.27474 14.8546 9.36512 15.5926 11.6257 15.8739C12.3165 15.9568 13.0116 15.9957 13.7071 15.9903C14.0961 15.9891 14.0968 15.981 14.1072 15.5674C14.1101 15.452 14.1077 15.3364 14.1077 15.2209C14.1077 13.7578 14.1079 12.2946 14.1083 10.8315C14.109 10.2649 14.1307 10.2391 14.683 10.3441C15.5726 10.5073 16.4228 10.8459 17.1865 11.3411C18.7148 12.3391 19.7565 13.7395 20.42 15.4505C20.6289 15.9892 20.6249 15.9918 21.1598 15.9921C22.2691 15.9928 23.3785 15.9949 24.4878 15.9895C24.6487 15.9887 24.8208 16.0422 25 15.9151C24.5497 14.2039 23.7568 12.6722 22.6674 11.2951C21.5708 9.90905 20.227 8.82742 18.6413 7.96898C19.2987 7.51027 19.8809 7.0891 20.4047 6.59109C22.1685 4.91401 23.4243 2.92326 23.99 0.506669C24.0996 0.0383361 24.0828 0.0131714 23.619 0.0110784C22.5848 0.00640471 21.5503 0.0264435 20.5168 0.000396975C20.1629 -0.00852333 20.0333 0.132585 19.9309 0.454601C19.583 1.53551 19.0551 2.5466 18.3707 3.44313C17.5789 4.49231 16.6525 5.38194 15.4599 5.93768C15.0534 6.12706 14.6388 6.31912 14.1743 6.28311Z" fill="#4F606F"/>
<path d="M14.1743 6.28311C14.6388 6.31912 15.0534 6.12706 15.4599 5.93768C16.6525 5.38194 17.5789 4.49231 18.3707 3.44313C19.0551 2.5466 19.583 1.53551 19.9309 0.454601C20.0333 0.132585 20.1629 -0.00852333 20.5168 0.000396975C21.5503 0.0264435 22.5848 0.00640471 23.619 0.0110784C24.0828 0.0131714 24.0996 0.0383361 23.99 0.506669C23.4243 2.92326 22.1685 4.91401 20.4047 6.59109C19.8809 7.0891 19.2987 7.51027 18.6413 7.96898C20.227 8.82742 21.5708 9.90905 22.6674 11.2951C23.7568 12.6722 24.5497 14.2039 25 15.9151C24.8208 16.0422 24.6487 15.9887 24.4878 15.9895C23.3785 15.9949 22.2691 15.9928 21.1598 15.9921C20.6249 15.9918 20.6289 15.9892 20.42 15.4505C19.7565 13.7395 18.7148 12.3391 17.1865 11.3411C16.4228 10.8459 15.5726 10.5073 14.683 10.3441C14.1307 10.2391 14.109 10.2649 14.1083 10.8315C14.1079 12.2946 14.1077 13.7578 14.1077 15.2209C14.1077 15.3364 14.1101 15.452 14.1072 15.5674C14.0968 15.981 14.0961 15.9891 13.7071 15.9903C13.0116 15.9957 12.3165 15.9568 11.6257 15.8739C9.36512 15.5926 7.27474 14.8546 5.4471 13.4323C3.34168 11.7939 1.99437 9.60814 1.13777 7.08072C0.553154 5.33217 0.201377 3.51083 0.0919491 1.66594C0.0634942 1.22494 0.0411074 0.783382 0.00288895 0.343267C-0.0193285 0.0874182 0.0864769 0.00614551 0.324627 0.00739862C1.52796 0.013726 2.73137 0.00527608 3.93469 0.0134895C4.26866 0.0157674 4.27134 0.0336892 4.28545 0.50565C4.33515 2.1671 4.57178 3.79789 5.07288 5.3815C5.59615 7.03517 6.38281 8.52817 7.65811 9.71397C8.19793 10.2248 8.82535 10.6289 9.50868 10.9058C10.0527 11.1226 10.0753 11.1059 10.0764 10.5255C10.0769 9.3704 10.0771 8.2153 10.0771 7.06019C10.0771 4.9425 10.0771 2.8248 10.0771 0.707109C10.0771 0.591598 10.0835 0.475661 10.0761 0.360669C10.0608 0.125904 10.1408 0.00594918 10.3926 0.00750979C11.5396 0.0146262 12.6865 0.0124473 13.8335 0.0104359C14.0162 0.0101145 14.1153 0.0794698 14.1073 0.27916C14.1019 0.413669 14.1077 0.548627 14.1077 0.683385C14.1078 2.35827 14.1086 4.03316 14.1102 5.70804C14.1107 5.89514 14.0609 6.09196 14.1743 6.28311Z" fill="#4F606F"/>
</svg>
