<svg width="20" height="20" viewBox="0 0 20 20" fill="none" xmlns="http://www.w3.org/2000/svg">
<path d="M17 2.9C15.2 1 12.7 0 10 0C4.5 0 0.0999999 4.5 0.0999999 9.9C0.0999999 11.7 0.6 13.4 1.4 14.9L0 20L5.2 18.6C6.7 19.4 8.3 19.8 9.9 19.8C15.4 19.8 19.8 15.3 19.8 9.9C20 7.3 18.9 4.8 17 2.9ZM14.9 13.5C14.7 14.1 13.7 14.6 13.2 14.7C12.8 14.8 12.2 14.8 11.6 14.6C11.2 14.5 10.8 14.3 10.2 14.1C7.7 13 6.1 10.5 6 10.4C5.9 10.2 5 9.1 5 7.8C5 6.6 5.7 6 5.9 5.7C6.1 5.5 6.4 5.4 6.6 5.4C6.8 5.4 6.9 5.4 7.1 5.4C7.3 5.4 7.5 5.3 7.7 5.8C7.9 6.3 8.4 7.5 8.5 7.6C8.6 7.7 8.6 7.9 8.5 8C8.4 8.2 8.4 8.3 8.3 8.4C8.2 8.5 8 8.7 7.9 8.8C7.8 8.9 7.7 9.1 7.8 9.3C8 9.5 8.4 10.4 9.2 11C10.1 11.8 10.9 12.1 11.2 12.2C11.4 12.3 11.6 12.3 11.7 12.1C11.8 11.9 12.3 11.4 12.5 11.1C12.7 10.9 12.8 10.9 13.1 11C13.3 11.1 14.5 11.7 14.8 11.8C15 11.9 15.2 12 15.3 12.1C15.1 12.4 15.1 12.9 14.9 13.5Z" fill="#4F606F"/>
</svg>
